# xmcd
#
# Track frame offsets:
#	150
#	16772
#	31532
#	42747
#	52630
#	76227
#	96330
#	110702
#	129302
#	139080
#	153145
#	168537
#	185037
#	206495
#	226492
#	244862
#	266340
#	279950
#	294205
#	318930
#
# Disc length: 4423 seconds
#
# Revision: 3
# Processed by: cddbd v1.5.2PL0 Copyright (c) Steve Scherf et al.
# Submitted via: audiograbber 1.82.02
#
DISCID=05114514
DTITLE=John Denver - The Rocky Mountain Collection CD 1
DYEAR=1983
DGENRE=Country
TTITLE0=Leaving, On A Jet Plane
TTITLE1=Rhymes and Reasons
TTITLE2=Follow Me
TTITLE3=Aspenglow
TTITLE4=Sunshine On My Shoulders
TTITLE5=My Sweet Lady
TTITLE6=Take Me Home Country Roads
TTITLE7=Poem, Prayers And Promises
TTITLE8=The Eagle And The Hawk
TTITLE9=Starwood In Aspen
TTITLE10=Friends With You
TTITLE11=Goodbye Again
TTITLE12=Rocky Mountain High
TTITLE13=I'd Rather Be A Cowboy (Lady's Chains)
TTITLE14=Farewell Andromeda (Welcome To My Morning)
TTITLE15=Back Home Again
TTITLE16=Annie's Song
TTITLE17=Thank God I'm A Country Boy
TTITLE18=Sweet Surrender
TTITLE19=This Old Guitar
EXTD=
EXTT0=
EXTT1=
EXTT2=
EXTT3=
EXTT4=
EXTT5=
EXTT6=
EXTT7=
EXTT8=
EXTT9=
EXTT10=
EXTT11=
EXTT12=
EXTT13=
EXTT14=
EXTT15=
EXTT16=
EXTT17=
EXTT18=
EXTT19=
PLAYORDER=
